:SAMPLES-PER-SECOND 24
:FULLY-SPECIFIED
:DEGREES
286
root  -1.60397 39.041 0.564648 -165.874 72.2183 -173.342
RightUpLeg  -9.02734 -3.99481 -4.94015
RightLeg  28.6231 -1.6951 -1.21997
RightFoot  -16.3786 0.342289 10.6156
RightToes  -2.09809e-008 3.77894e-005 6.81332e-007
Spine  -4.62097 1.67794 6.03501
Spine1  5.93523 2.48921 -4.11864
HEad  -26.6775 39.5497 -18.9596
LeftShoulder1  6.47397 -12.2835 -34.9872
LeftArm  2.3686 18.4467 -34.8775
LeftForeArm  172.865 -60.1159 -163.001
LeftHand  -0.185304 -2.05437 3.0788
RightShoulder  3.58357 6.33522 30.5193
RightArm  17.0826 -23.0658 28.8304
RightForeArm  160.987 68.5848 154.086
RightHand  -0.396491 9.28264 -3.51923
LeftUpLeg  -18.0866 -3.71178 20.3194
LeftLeg  26.9209 4.24249 2.67902
LeftFoot  -0.166039 2.35825 -23.7908
LeftToes  1.24773e-006 1.46318e-008 1.32523e-009
287
root  -1.73427 38.1523 1.22693 -159.823 74.8118 -167.027
RightUpLeg  -11.3397 -0.558291 -1.95397
RightLeg  32.2302 -4.56582 -3.34354
RightFoot  -21.7642 0.471983 6.78771
RightToes  -2.09809e-008 3.77894e-005 6.81332e-007
Spine  -5.38792 3.34996 9.85283
Spine1  8.01578 4.65667 -6.83495
HEad  -29.023 38.813 -19.5206
LeftShoulder1  6.98142 -12.7332 -36.93
LeftArm  0.0143579 14.555 -33.4553
LeftForeArm  174.033 -62.1874 -161.674
LeftHand  -0.25198 -1.80289 4.24267
RightShoulder  3.55046 6.18107 30.762
RightArm  15.5634 -18.9941 28.3567
RightForeArm  159.441 71.1745 150.169
RightHand  -0.433208 9.56475 -3.7526
LeftUpLeg  -16.5746 -3.34463 22.0173
LeftLeg  27.0911 8.63983 5.10577
LeftFoot  -6.45008 1.02027 -22.7223
LeftToes  1.24773e-006 1.46318e-008 1.32523e-009
288
root  -1.67541 38.0257 1.87809 -161.366 76.3558 -169.019
RightUpLeg  -12.7608 3.87762 -1.14508
RightLeg  34.1211 -8.30393 -6.23812
RightFoot  -22.0907 0.462824 6.51732
RightToes  -2.09809e-008 3.77894e-005 6.81332e-007
Spine  -6.67648 3.89468 6.85609
Spine1  8.93236 4.91873 -5.11991
HEad  -29.6768 39.2746 -18.2705
LeftShoulder1  7.17635 -12.8715 -37.7288
LeftArm  -2.42022 16.0379 -33.777
LeftForeArm  177.642 -62.0617 -162.105
LeftHand  -0.214964 -2.06165 3.53658
RightShoulder  3.70746 6.30198 31.9233
RightArm  13.3679 -19.74 28.9097
RightForeArm  161.026 72.3017 148.485
RightHand  -0.174514 10.2733 -1.70081
LeftUpLeg  -16.1516 -4.64244 21.5856
LeftLeg  26.4368 12.5649 7.03787
LeftFoot  -4.84522 1.3017 -22.1274
LeftToes  1.24773e-006 1.46318e-008 1.32523e-009
289
root  -1.49189 38.7707 2.24497 -168.186 73.2655 -175.918
RightUpLeg  -10.5745 2.36303 -1.70895
RightLeg  30.6275 -9.06388 -5.9841
RightFoot  -19.0751 0.380221 7.47721
RightToes  -2.09809e-008 3.77894e-005 6.81332e-007
Spine  -7.58563 2.03782 2.70603
Spine1  8.92896 2.43697 -1.55524
HEad  -29.6906 40.2904 -17.5245
LeftShoulder1  6.78221 -12.4836 -36.3696
LeftArm  -2.99788 21.0621 -36.1297
LeftForeArm  178.315 -60.5133 -163.233
LeftHand  -0.196218 -2.08079 3.2387
RightShoulder  3.77863 6.38384 32.3321
RightArm  11.7897 -25.577 31.8008
RightForeArm  163.852 70.7293 151.467
RightHand  -0.132681 10.3546 -1.39109
LeftUpLeg  -17.0255 -7.74283 20.4963
LeftLeg  24.0674 15.4665 7.72537
LeftFoot  3.71076 2.60708 -19.9018
LeftToes  1.24773e-006 1.46318e-008 1.32523e-009
290
root  -1.25341 40.0582 2.28559 -169.634 70.0118 -177.635
RightUpLeg  -7.64055 -3.33876 -2.27803
RightLeg  24.0049 -6.20783 -3.26654
RightFoot  -11.4094 -0.0689034 8.12082
RightToes  -2.09809e-008 3.77894e-005 6.81332e-007
Spine  -9.22671 0.708567 2.47324
Spine1  8.87906 0.836355 -0.819594
HEad  -26.886 41.099 -16.8041
LeftShoulder1  6.59529 -12.3419 -35.592
LeftArm  -1.29095 25.9309 -36.9656
LeftForeArm  176.554 -59.3495 -163.82
LeftHand  -0.220783 -1.97634 3.66306
RightShoulder  3.72554 6.27206 32.2254
RightArm  11.5323 -32.8239 34.0716
RightForeArm  164.48 68.6194 154.467
RightHand  -0.316134 9.6352 -2.83913
LeftUpLeg  -17.1415 -5.47671 19.1639
LeftLeg  18.9656 15.8545 6.23157
LeftFoot  14.0401 3.43546 -15.6493
LeftToes  1.24773e-006 1.46318e-008 1.32523e-009
291
root  -1.04871 41.2076 2.24477 -169.759 70.6391 -178.949
RightUpLeg  -7.63762 -5.71745 -3.72587
RightLeg  20.3093 -1.75442 -0.934907
RightFoot  -3.09898 -0.767163 10.3267
RightToes  -2.09809e-008 3.77894e-005 6.81332e-007
Spine  -11.9362 1.22427 2.37165
Spine1  8.89075 1.32206 -1.15519
HEad  -21.7601 41.9114 -14.7533
LeftShoulder1  6.6241 -12.419 -35.5707
LeftArm  0.194062 29.777 -36.8428
LeftForeArm  175.609 -58.8345 -164.051
LeftHand  -0.101862 -2.31288 1.73087
RightShoulder  3.68061 6.22346 31.9529
RightArm  11.8614 -38.2861 33.7468
RightForeArm  164.957 67.1827 156.205
RightHand  -0.168728 9.83506 -1.68829
LeftUpLeg  -16.1857 4.27143 16.0195
LeftLeg  13.5594 9.83489 3.4164
LeftFoot  18.2677 4.19107 -16.1997
LeftToes  1.24773e-006 1.46318e-008 1.32523e-009
292
root  -1.014 41.7162 2.30304 -172.309 72.9977 177.769
RightUpLeg  -9.60615 -1.00625 -5.74476
RightLeg  21.5749 -0.869732 -0.60405
RightFoot  -1.07535 -0.903 9.90458
RightToes  -2.09809e-008 3.77894e-005 6.81332e-007
Spine  -11.774 1.82655 0.110281
Spine1  6.91971 1.88746 -0.0657839
HEad  -18.9769 43.0422 -13.1761
LeftShoulder1  6.49489 -12.3273 -35.0051
LeftArm  0.601311 32.4715 -36.9649
LeftForeArm  174.807 -58.5804 -164.134
LeftHand  0.0424528 -2.52998 -0.419959
RightShoulder  3.76405 6.43047 32.0033
RightArm  13.6272 -40.3375 31.0929
RightForeArm  164.885 66.3306 157.105
RightHand  0.0545095 10.0971 -0.00342606
LeftUpLeg  -15.1487 9.2805 13.7653
LeftLeg  11.4471 3.6756 1.05475
LeftFoot  17.0443 5.28052 -21.0962
LeftToes  1.24773e-006 1.46318e-008 1.32523e-009
293
root  -1.17383 41.5614 2.38203 -175.156 74.1713 175.769
RightUpLeg  -10.6706 5.97208 -7.01167
RightLeg  24.7299 -2.63576 -1.55622
RightFoot  -3.11149 -0.493252 6.46405
RightToes  -2.09809e-008 3.77894e-005 6.81332e-007
Spine  -9.08047 1.67664 -1.06392
Spine1  5.10413 1.70423 0.647372
HEad  -20.6405 43.7304 -13.9293
LeftShoulder1  6.23479 -12.1266 -33.8844
LeftArm  1.05156 32.5855 -36.4682
LeftForeArm  173.226 -58.6085 -163.982
LeftHand  -0.00772996 -2.18561 0.307081
RightShoulder  3.77129 6.52025 31.7328
RightArm  15.6851 -38.3865 29.3587
RightForeArm  163.082 66.9081 156.283
RightHand  -0.0382962 9.56838 -0.702192
LeftUpLeg  -14.4531 7.78048 13.1017
LeftLeg  12.8875 1.50172 0.666579
LeftFoot  16.0018 5.42591 -22.4808
LeftToes  1.24773e-006 1.46318e-008 1.32523e-009
294
root  -1.4284 40.8081 2.38997 -176.943 73.4478 175.669
RightUpLeg  -10.0344 9.77973 -7.68275
RightLeg  27.3734 -2.65812 -1.72457
RightFoot  -6.72358 -0.339105 7.31082
RightToes  -2.09809e-008 3.77894e-005 6.81332e-007
Spine  -6.00276 0.736726 -0.209858
Spine1  4.36869 0.857283 -0.260855
HEad  -23.4562 43.6118 -15.1861
LeftShoulder1  6.10785 -12.1049 -33.1321
LeftArm  1.39605 30.4065 -34.6899
LeftForeArm  170.432 -59.0197 -163.49
LeftHand  -0.0894235 -1.70358 1.6261
RightShoulder  3.66832 6.43188 31.0244
RightArm  16.2057 -34.2361 29.1953
RightForeArm  160.57 68.5467 154.061
RightHand  -0.118556 9.55542 -1.3202
LeftUpLeg  -14.684 3.1297 13.105
LeftLeg  17.5226 3.61477 1.63646
LeftFoot  11.8305 4.18941 -20.5822
LeftToes  1.24773e-006 1.46318e-008 1.32523e-009
